<?xml version="1.0" encoding="utf-8"?>
<!-- Generator: Adobe Illustrator 23.0.0, SVG Export Plug-In . SVG Version: 6.00 Build 0)  -->
<svg version="1.1" id="图层_1" xmlns="http://www.w3.org/2000/svg" xmlns:xlink="http://www.w3.org/1999/xlink" x="0px" y="0px"
	 viewBox="0 0 80 80" style="enable-background:new 0 0 80 80;" xml:space="preserve">
<style type="text/css">
	.st0{display:none;}
	.st1{display:inline;}
	.st2{fill:none;stroke:#EE4532;stroke-linecap:round;stroke-linejoin:round;stroke-miterlimit:10;}
	.st3{fill:none;stroke:#EE4532;stroke-linecap:round;stroke-miterlimit:10;}
	.st4{display:none;fill:#EE4532;}
	.st5{font-family:'PingFangSC-Regular-GBpc-EUC-H';}
	.st6{font-size:10.2857px;}
	.st7{fill:#FF6427;}
	.st8{fill:#FFD633;}
	.st9{fill:#F9B233;}
	.st10{fill:#FDC00F;}
	.st11{fill:#FFFFFF;}
	.st12{fill:#84330B;}
</style>
<g>
	<g id="XMLID_52_" class="st0">
		<g id="XMLID_51_" class="st1">
			<path id="XMLID_53_" class="st2" d="M18.3,53.6l-0.4,0.6l-4.5,6.2l11.1-1.2l2.2,10.2l10.9-15.1c-5.7-0.8-10.7-3.6-14.2-7.8
				l-2.3,3.1l-0.7,1"/>
			<path id="XMLID_27_" class="st2" d="M46.1,60.9l0.5,0.6l1.2,1.6l4.6,6.4l2.2-10.2l11.1,1.2l-9-12.4c-3.9,3.9-9.2,6.4-15.1,6.6
				l2.3,3.1L44,58"/>
		</g>
		<g id="XMLID_42_" class="st1">
			<path id="XMLID_50_" class="st3" d="M28,13.3c1.5-1,3.1-1.8,4.8-2.5"/>
			<g id="XMLID_43_">
				<path id="XMLID_49_" class="st3" d="M36.3,9.9c1.4-0.3,2.8-0.4,4.3-0.4c12.5,0,22.6,10.1,22.6,22.6S53.1,54.6,40.6,54.6
					S18,44.5,18,32c0-4.5,1.3-8.7,3.6-12.3"/>
				<path id="XMLID_48_" class="st3" d="M24.2,16.5c0.1-0.1,0.3-0.3,0.4-0.4"/>
				<g id="XMLID_44_">
					<path id="XMLID_47_" class="st3" d="M54.8,40.2c-0.2,0.4-0.4,0.7-0.7,1.1"/>
					<path id="XMLID_46_" class="st3" d="M42.5,48.3c-0.6,0.1-1.3,0.1-1.9,0.1c-9,0-16.4-7.3-16.4-16.4s7.3-16.4,16.4-16.4
						S57,23,57,32c0,1.1-0.1,2.2-0.3,3.2"/>
					<path id="XMLID_45_" class="st3" d="M50.2,45.3c-1,0.7-2.1,1.3-3.2,1.8c-0.2,0.1-0.3,0.1-0.5,0.2"/>
				</g>
			</g>
		</g>
	</g>
	<text transform="matrix(1 0 0 1 30.7778 36.1885)" class="st4 st5 st6">精品</text>
	<g>
		<g>
			<g>
				<polyline class="st7" points="18.2,72.5 9.7,72.7 26.9,43 39.4,50.3 22.2,80 18.2,72.5 				"/>
			</g>
		</g>
		<g>
			<g>
				<polyline class="st7" points="63.2,72.5 71.7,72.7 54.5,43 41.9,50.3 59.2,80 63.2,72.5 				"/>
			</g>
		</g>
	</g>
	<g>
		<g>
			<g>
				<path class="st8" d="M68.9,32.7c0,15.5-12.6,28.1-28.1,28.1c-15.5,0-28.1-12.6-28.1-28.1c0-15.5,12.6-28.1,28.1-28.1
					C56.3,4.6,68.9,17.2,68.9,32.7z"/>
				<path class="st8" d="M40.7,58c-13.9,0-25.3-11.3-25.3-25.3S26.8,7.4,40.7,7.4C54.6,7.4,66,18.8,66,32.7S54.6,58,40.7,58z"/>
				<g>
					<path class="st9" d="M40.7,61.2c-15.7,0-28.5-12.8-28.5-28.5C12.2,17,25,4.2,40.7,4.2c15.7,0,28.5,12.8,28.5,28.5
						C69.2,48.4,56.4,61.2,40.7,61.2z M40.7,4.9c-15.3,0-27.8,12.5-27.8,27.8c0,15.3,12.5,27.8,27.8,27.8C56,60.5,68.5,48,68.5,32.7
						C68.5,17.4,56,4.9,40.7,4.9z"/>
				</g>
				<g>
					<path class="st9" d="M40.7,58.3c-14.1,0-25.6-11.5-25.6-25.6S26.6,7.1,40.7,7.1c14.1,0,25.6,11.5,25.6,25.6
						S54.8,58.3,40.7,58.3z M40.7,7.8C27,7.8,15.8,19,15.8,32.7c0,13.7,11.2,24.9,24.9,24.9c13.7,0,24.9-11.2,24.9-24.9
						C65.6,19,54.5,7.8,40.7,7.8z"/>
				</g>
			</g>
		</g>
		<g>
			<g>
				<g>
					<path class="st10" d="M31.1,21c0,0-1.5-3.7-4.4-2.5C26.7,18.4,26.7,21.3,31.1,21z"/>
					<path class="st10" d="M28.9,13.8c0,0,0.9,3.9-2.2,4.6C26.7,18.4,25.1,16.1,28.9,13.8z"/>
				</g>
				<g>
					<path class="st10" d="M28.3,23.7c0,0-2.4-3.2-4.9-1.3C23.4,22.4,24.1,25.2,28.3,23.7z"/>
					<path class="st10" d="M24.3,17.4c0,0,1.9,3.5-0.9,5C23.4,22.3,21.2,20.5,24.3,17.4z"/>
				</g>
				<g>
					<path class="st10" d="M26.3,27.1c0,0-3.2-2.5-5,0C21.2,27.1,22.6,29.6,26.3,27.1z"/>
					<path class="st10" d="M20.8,22c0,0,2.7,2.9,0.4,5C21.2,27,18.6,25.9,20.8,22z"/>
				</g>
				<g>
					<path class="st10" d="M25.2,30.9c0,0-3.7-1.6-4.9,1.3C20.3,32.2,22.3,34.2,25.2,30.9z"/>
					<path class="st10" d="M18.6,27.4c0,0,3.4,2.1,1.7,4.7C20.3,32.1,17.5,31.7,18.6,27.4z"/>
				</g>
				<g>
					<path class="st10" d="M25.1,34.8c0,0-4-0.6-4.4,2.5C20.8,37.3,23.2,38.8,25.1,34.8z"/>
					<path class="st10" d="M17.9,33.1c0,0,3.8,1.2,2.9,4.1C20.7,37.3,17.9,37.6,17.9,33.1z"/>
				</g>
				<g>
					<path class="st10" d="M26.1,38.6c0,0-4,0.5-3.6,3.6C22.5,42.2,25.3,43,26.1,38.6z"/>
					<path class="st10" d="M18.6,38.9c0,0,4,0.2,3.8,3.3C22.5,42.2,19.8,43.2,18.6,38.9z"/>
				</g>
				<g>
					<path class="st10" d="M28,42c0,0-3.7,1.5-2.5,4.4C25.5,46.4,28.3,46.5,28,42z"/>
					<path class="st10" d="M20.9,44.3c0,0,3.9-0.9,4.6,2.2C25.4,46.4,23.1,48.1,20.9,44.3z"/>
				</g>
				<g>
					<path class="st10" d="M30.8,44.9c0,0-3.2,2.4-1.3,4.9C29.4,49.7,32.2,49,30.8,44.9z"/>
					<path class="st10" d="M24.4,48.9c0,0,3.6-1.9,5,0.9C29.4,49.8,27.6,52,24.4,48.9z"/>
				</g>
				<g>
					<path class="st10" d="M34.1,46.9c0,0-2.5,3.2,0,5C34.1,51.9,36.6,50.5,34.1,46.9z"/>
					<path class="st10" d="M29.1,52.4c0,0,2.9-2.7,5-0.4C34.1,52,32.9,54.6,29.1,52.4z"/>
				</g>
				<g>
					<path class="st10" d="M37.9,48c0,0-1.6,3.7,1.3,4.9C39.2,52.8,41.3,50.8,37.9,48z"/>
					<path class="st10" d="M34.4,54.6c0,0,2.1-3.4,4.7-1.7C39.2,52.9,38.7,55.7,34.4,54.6z"/>
				</g>
				<path class="st10" d="M34.7,15.6c0,0-3.8-1.2-4.7,1.8C30,17.3,32.2,19.2,34.7,15.6z"/>
				<g>
					<path class="st10" d="M50.2,21c0,0,1.5-3.7,4.4-2.5C54.6,18.4,54.6,21.3,50.2,21z"/>
					<path class="st10" d="M52.4,13.8c0,0-0.9,3.9,2.2,4.6C54.6,18.4,56.2,16.1,52.4,13.8z"/>
				</g>
				<g>
					<path class="st10" d="M53,23.7c0,0,2.4-3.2,4.9-1.3C57.9,22.4,57.2,25.2,53,23.7z"/>
					<path class="st10" d="M57,17.4c0,0-1.9,3.5,0.9,5C57.9,22.3,60.1,20.5,57,17.4z"/>
				</g>
				<g>
					<path class="st10" d="M55,27.1c0,0,3.2-2.5,5,0C60.1,27.1,58.7,29.6,55,27.1z"/>
					<path class="st10" d="M60.5,22c0,0-2.7,2.9-0.4,5C60.1,27,62.7,25.9,60.5,22z"/>
				</g>
				<g>
					<path class="st10" d="M56.1,30.9c0,0,3.7-1.6,4.9,1.3C61,32.2,59,34.2,56.1,30.9z"/>
					<path class="st10" d="M62.7,27.4c0,0-3.4,2.1-1.7,4.7C61,32.1,63.8,31.7,62.7,27.4z"/>
				</g>
				<g>
					<path class="st10" d="M56.2,34.8c0,0,4-0.6,4.4,2.5C60.5,37.3,58.1,38.8,56.2,34.8z"/>
					<path class="st10" d="M63.5,33.1c0,0-3.8,1.2-2.9,4.1C60.6,37.3,63.4,37.6,63.5,33.1z"/>
				</g>
				<g>
					<path class="st10" d="M55.2,38.6c0,0,4,0.5,3.6,3.6C58.8,42.2,56,43,55.2,38.6z"/>
					<path class="st10" d="M62.7,38.9c0,0-4,0.2-3.8,3.3C58.8,42.2,61.5,43.2,62.7,38.9z"/>
				</g>
				<g>
					<path class="st10" d="M53.3,42c0,0,3.7,1.5,2.5,4.4C55.8,46.4,53,46.5,53.3,42z"/>
					<path class="st10" d="M60.4,44.3c0,0-3.9-0.9-4.6,2.2C55.9,46.4,58.2,48.1,60.4,44.3z"/>
				</g>
				<g>
					<path class="st10" d="M50.5,44.9c0,0,3.2,2.4,1.3,4.9C51.9,49.7,49.1,49,50.5,44.9z"/>
					<path class="st10" d="M56.9,48.9c0,0-3.6-1.9-5,0.9C51.9,49.8,53.7,52,56.9,48.9z"/>
				</g>
				<g>
					<path class="st10" d="M47.2,46.9c0,0,2.5,3.2,0,5C47.2,51.9,44.7,50.5,47.2,46.9z"/>
					<path class="st10" d="M52.2,52.4c0,0-2.9-2.7-5-0.4C47.2,52,48.4,54.6,52.2,52.4z"/>
				</g>
				<g>
					<path class="st10" d="M43.4,48c0,0,1.6,3.7-1.3,4.9C42.1,52.8,40,50.8,43.4,48z"/>
					<path class="st10" d="M46.9,54.6c0,0-2.1-3.4-4.7-1.7C42.1,52.9,42.6,55.7,46.9,54.6z"/>
				</g>
				<path class="st10" d="M46.6,15.6c0,0,3.8-1.2,4.7,1.8C51.3,17.3,49.1,19.2,46.6,15.6z"/>
			</g>
		</g>
		<path class="st8" d="M12.2,32.7C12.2,17,25,4.3,40.7,4.3V1.3c-2.9,0-6-1.9-8.7-1.2c-2.8,0.7-4.5,4-7,5.4c-2.5,1.4-6.1,1.3-8.1,3.3
			c-2,2-1.9,5.7-3.3,8.1c-1.4,2.4-4.6,4.2-5.4,7c-0.7,2.7,1.2,5.8,1.2,8.7c0,2.9-1.9,6-1.2,8.7c0.7,2.8,4,4.5,5.4,7
			c1.4,2.5,1.3,6.1,3.3,8.1c2,2,5.7,1.9,8.1,3.3c2.4,1.4,4.2,4.6,7,5.4c2.7,0.7,5.8-1.2,8.7-1.2v-2.9C25,61.1,12.2,48.4,12.2,32.7z"
			/>
		<path class="st10" d="M49.4,65.2c2.8-0.7,4.5-4,7-5.4c2.5-1.4,6.1-1.3,8.1-3.3c2-2,1.9-5.7,3.3-8.1c1.4-2.4,4.6-4.2,5.4-7
			c0.7-2.7-1.2-5.8-1.2-8.7c0-2.9,1.9-6,1.2-8.7c-0.7-2.8-4-4.5-5.4-7c-1.4-2.5-1.3-6.1-3.3-8.1c-2-2-5.7-1.9-8.1-3.3
			c-2.4-1.4-4.2-4.6-7-5.4c-2.7-0.7-5.8,1.2-8.7,1.2h0v2.9c15.7,0,28.4,12.8,28.4,28.4c0,15.7-12.8,28.4-28.4,28.4V64h0
			C43.6,64,46.7,65.9,49.4,65.2z"/>
		<polygon class="st11" points="55,6.8 55.3,11.3 59.7,10.2 55.5,11.9 57.9,15.7 55,12.2 52.1,15.7 54.5,11.9 50.4,10.2 54.7,11.3 
					"/>
	</g>
</g>
<g>
	<path class="st12" d="M29.5,30.6v-4.9h1v4.9h1.7v0.9h-1.7V32c0.7,0.7,1.4,1.5,2.1,2.4L32,35.3c-0.6-1-1.1-1.8-1.5-2.4v5.6h-1v-5.4
		c-0.5,1.2-1.1,2.4-1.9,3.4l-0.4-1.1c1-1.1,1.8-2.4,2.2-3.9h-1.9v-0.9H29.5z M28.8,29.8l-0.7,0.2c-0.2-1-0.4-1.9-0.6-2.9l0.7-0.2
		C28.5,27.7,28.7,28.7,28.8,29.8z M32.3,26.7c-0.1,1.2-0.3,2.2-0.6,3.2L31,29.6c0.3-0.9,0.5-1.9,0.6-3L32.3,26.7z M36.9,25.6v0.9
		h2.9v0.8h-2.9v0.9h2.5v0.8h-2.5v1h3.3v0.8h-7.6v-0.8h3.3v-1h-2.6v-0.8h2.6v-0.9h-3v-0.8h3v-0.9H36.9z M34.3,38.5h-1v-6.7h6v5.5
		c0,0.7-0.4,1.1-1.1,1.1h-1L37,37.5l1,0.1c0.3,0,0.4-0.2,0.4-0.5v-0.8h-4.1V38.5z M38.4,32.6h-4.1v1h4.1V32.6z M34.3,35.5h4.1v-1
		h-4.1V35.5z"/>
	<path class="st12" d="M46.9,38.3h-1v-0.7h-3v0.7h-1v-6.1h4.9V38.3z M45.9,36.6v-3.4h-3v3.4H45.9z M51.6,26.2v4.6h-7.7v-4.6H51.6z
		 M50.6,27.2h-5.7v2.7h5.7V27.2z M53.4,38.3h-1v-0.7h-3.1v0.7h-1v-6.1h5.1V38.3z M52.4,36.6v-3.4h-3.1v3.4H52.4z"/>
</g>
</svg>
